<svg xmlns="http://www.w3.org/2000/svg" xmlns:xlink="http://www.w3.org/1999/xlink" width="500" zoomAndPan="magnify" viewBox="0 0 375 374.999991" height="500" preserveAspectRatio="xMidYMid meet" version="1.0"><path fill="#64523c" d="M 41.757812 375 C 18.695312 375 0 357.699219 0 357.699219 C 0 357.699219 18.695312 340.394531 41.757812 340.394531 C 18.695312 340.394531 0 323.089844 0 323.089844 C 3.421875 319.992188 7.320312 317.203125 11.121094 314.554688 C 17.921875 309.820312 25.300781 306.320312 33.65625 305.609375 C 34.308594 305.554688 41.757812 305.359375 41.757812 305.75 L 41.757812 305.71875 C 38.257812 305.222656 34.558594 304.125 31.273438 302.832031 C 28.738281 301.835938 26.261719 300.484375 24.058594 298.886719 C 16.300781 293.253906 10.75 284.875 7.800781 275.824219 C 7.511719 274.941406 7.40625 274.449219 7.40625 274.449219 C 16.542969 268.285156 28.179688 265.523438 39.070312 267.445312 C 43.65625 268.257812 48.148438 269.929688 52.371094 272.421875 L 52.464844 272.332031 C 48.507812 269.390625 45.21875 265.894531 42.714844 261.988281 C 38.171875 255.015625 36.027344 246.574219 36.0625 238.292969 C 36.066406 237.550781 36.1875 230.199219 36.839844 230.125 C 47.867188 228.835938 59.265625 231.15625 68.316406 237.808594 C 72.648438 240.941406 76.429688 245.15625 79.324219 250.128906 C 79.371094 250.210938 79.414062 250.292969 79.457031 250.371094 C 79.425781 250.28125 79.371094 250.210938 79.324219 250.128906 C 76.40625 245.164062 74.605469 239.835938 73.976562 234.480469 C 73.054688 226.652344 74.976562 219.519531 77.347656 212.140625 C 78.300781 209.175781 79.421875 205.375 82.277344 203.667969 C 83.6875 202.820312 86.3125 204.617188 87.699219 205.273438 C 96.09375 209.148438 103.390625 215.863281 107.683594 224.070312 C 110.183594 228.84375 111.703125 234.269531 112.097656 240.011719 C 112.101562 240.0625 112.101562 240.109375 112.101562 240.15625 C 112.105469 240.109375 112.101562 240.0625 112.097656 240.011719 C 111.871094 236.949219 111.960938 233.777344 112.421875 230.742188 C 113.972656 220.523438 119.679688 210.9375 125.65625 202.699219 C 125.847656 202.441406 129.386719 198.03125 129.394531 198.039062 C 129.394531 198.042969 146.695312 216.738281 146.695312 239.796875 C 146.695312 239.917969 146.691406 240.035156 146.6875 240.15625 C 146.707031 240.035156 146.695312 239.917969 146.695312 239.796875 C 146.695312 216.738281 164 198.039062 164 198.039062 C 164 198.039062 181.304688 216.738281 181.304688 239.796875 C 181.304688 239.917969 181.296875 240.035156 181.296875 240.15625 C 181.3125 240.035156 181.304688 239.917969 181.304688 239.796875 C 181.304688 216.738281 198.609375 198.039062 198.609375 198.039062 C 198.609375 198.039062 215.910156 216.738281 215.910156 239.796875 C 215.910156 239.917969 215.902344 240.035156 215.902344 240.15625 C 215.917969 240.035156 215.910156 239.917969 215.910156 239.796875 C 215.910156 216.738281 233.214844 198.039062 233.214844 198.039062 C 233.214844 198.039062 250.515625 216.738281 250.515625 239.796875 C 250.515625 239.917969 250.511719 240.035156 250.507812 240.15625 C 250.523438 240.035156 250.515625 239.917969 250.515625 239.796875 C 250.515625 224.992188 257.242188 206.886719 270.753906 199.320312 C 271.585938 198.851562 272.070312 198.613281 272.070312 198.613281 C 280.824219 205.742188 287.0625 216.6875 287.496094 228.078125 C 287.753906 233.507812 286.738281 239.003906 284.535156 244.332031 C 284.253906 245.011719 283.960938 245.683594 283.652344 246.339844 L 283.75 246.375 C 283.996094 245.695312 284.253906 245.011719 284.535156 244.332031 C 286.195312 240.257812 288.496094 236.449219 291.503906 233.242188 C 296.804688 227.582031 303.195312 223.746094 310.695312 221.757812 C 312.378906 221.308594 324.734375 218.347656 325.480469 220.511719 C 327.203125 225.757812 327.695312 231.421875 327.519531 236.917969 C 327.03125 252.046875 315.101562 264.535156 302.160156 270.855469 L 302.160156 375 Z M 41.757812 375 " fill-opacity="1" fill-rule="nonzero"/><path fill="#222222" d="M 164.003906 198.039062 C 164.003906 198.039062 146.699219 216.734375 146.699219 239.796875 C 146.699219 216.738281 129.394531 198.039062 129.394531 198.039062 C 129.386719 198.03125 125.847656 202.4375 125.660156 202.699219 C 119.679688 210.933594 113.972656 220.523438 112.425781 230.742188 C 111.964844 233.777344 111.875 236.945312 112.097656 240.011719 C 111.703125 234.269531 110.183594 228.84375 107.6875 224.070312 C 103.394531 215.863281 96.09375 209.148438 87.699219 205.273438 C 86.3125 204.617188 83.691406 202.820312 82.277344 203.667969 C 79.425781 205.375 78.304688 209.175781 77.351562 212.140625 C 74.980469 219.519531 73.054688 226.648438 73.980469 234.480469 C 74.605469 239.835938 76.410156 245.164062 79.324219 250.128906 C 76.433594 245.15625 72.648438 240.941406 68.316406 237.804688 C 59.269531 231.15625 47.867188 228.835938 36.839844 230.125 C 36.191406 230.199219 36.066406 237.550781 36.0625 238.292969 C 36.027344 246.574219 38.171875 255.015625 42.714844 261.988281 C 45.222656 265.890625 48.511719 269.390625 52.464844 272.332031 L 52.371094 272.421875 C 48.148438 269.925781 43.660156 268.257812 39.070312 267.445312 C 28.179688 265.519531 16.542969 268.285156 7.40625 274.449219 C 7.40625 274.449219 7.511719 274.941406 7.800781 275.820312 C 10.75 284.875 16.300781 293.253906 24.058594 298.882812 C 26.261719 300.484375 28.738281 301.835938 31.273438 302.832031 C 34.28125 304.011719 37.628906 305.027344 40.859375 305.574219 C 38.863281 305.4375 34.167969 305.566406 33.65625 305.609375 C 25.300781 306.320312 17.925781 309.820312 11.121094 314.554688 C 7.320312 317.203125 3.421875 319.992188 0 323.089844 C 0 323.089844 18.695312 340.394531 41.761719 340.394531 C 18.695312 340.394531 0 357.699219 0 357.699219 C 0 357.699219 18.695312 375 41.757812 375 L 181.296875 375 L 181.296875 239.441406 C 181.121094 216.546875 164.003906 198.039062 164.003906 198.039062 Z M 41.757812 305.75 C 41.757812 305.734375 41.730469 305.722656 41.710938 305.710938 C 41.726562 305.714844 41.742188 305.714844 41.757812 305.71875 Z M 41.757812 305.75 " fill-opacity="0.2" fill-rule="nonzero"/><path fill="#997668" d="M 90.636719 297.726562 C 88.945312 297.726562 87.261719 297.046875 86.019531 295.710938 C 83.660156 293.160156 83.808594 289.179688 86.359375 286.816406 L 102.21875 272.117188 C 104.769531 269.753906 108.75 269.90625 111.113281 272.453125 C 113.472656 275.003906 113.324219 278.984375 110.773438 281.347656 L 94.914062 296.046875 C 93.703125 297.171875 92.167969 297.726562 90.636719 297.726562 Z M 90.636719 297.726562 " fill-opacity="1" fill-rule="nonzero"/><path fill="#997668" d="M 163.773438 334.484375 C 162.058594 334.484375 160.34375 333.785156 159.105469 332.410156 L 142.363281 313.882812 C 140.035156 311.304688 140.234375 307.328125 142.8125 304.996094 C 145.390625 302.664062 149.371094 302.867188 151.703125 305.445312 L 168.441406 323.972656 C 170.773438 326.550781 170.570312 330.53125 167.992188 332.859375 C 166.789062 333.949219 165.277344 334.484375 163.773438 334.484375 Z M 163.773438 334.484375 " fill-opacity="1" fill-rule="nonzero"/><path fill="#997668" d="M 206.003906 275.335938 C 203.980469 275.335938 201.992188 274.359375 200.777344 272.554688 C 198.835938 269.671875 199.605469 265.761719 202.484375 263.820312 L 218.496094 253.054688 C 221.378906 251.113281 225.289062 251.878906 227.226562 254.761719 C 229.167969 257.644531 228.402344 261.554688 225.519531 263.496094 L 209.511719 274.261719 C 208.433594 274.988281 207.210938 275.335938 206.003906 275.335938 Z M 206.003906 275.335938 " fill-opacity="1" fill-rule="nonzero"/><path fill="#997668" d="M 163.777344 286.984375 C 161.875 286.984375 159.996094 286.125 158.757812 284.492188 L 145.847656 267.457031 C 143.75 264.6875 144.292969 260.742188 147.0625 258.640625 C 149.832031 256.542969 153.777344 257.085938 155.878906 259.855469 L 168.789062 276.886719 C 170.886719 279.65625 170.34375 283.605469 167.574219 285.703125 C 166.4375 286.566406 165.101562 286.984375 163.777344 286.984375 Z M 163.777344 286.984375 " fill-opacity="1" fill-rule="nonzero"/><path fill="#997668" d="M 251.261719 273.65625 C 249.878906 273.65625 248.488281 273.203125 247.324219 272.269531 C 244.613281 270.089844 244.1875 266.128906 246.363281 263.421875 L 258.109375 248.808594 C 260.285156 246.101562 264.246094 245.671875 266.957031 247.847656 C 269.664062 250.023438 270.09375 253.984375 267.917969 256.695312 L 256.171875 271.308594 C 254.929688 272.851562 253.105469 273.65625 251.261719 273.65625 Z M 251.261719 273.65625 " fill-opacity="1" fill-rule="nonzero"/><path fill="#997668" d="M 82.617188 328.613281 C 81.148438 328.613281 79.671875 328.101562 78.476562 327.058594 L 62.257812 312.867188 C 59.640625 310.578125 59.375 306.605469 61.664062 303.988281 C 63.953125 301.371094 67.925781 301.105469 70.542969 303.394531 L 86.765625 317.582031 C 89.378906 319.871094 89.644531 323.847656 87.359375 326.460938 C 86.113281 327.886719 84.371094 328.613281 82.617188 328.613281 Z M 82.617188 328.613281 " fill-opacity="1" fill-rule="nonzero"/><path fill="#f5cfb2" d="M 348.433594 317.042969 L 302.164062 270.71875 C 244.570312 270.71875 197.882812 317.40625 197.882812 375 L 327.621094 375 C 345.691406 375 360.335938 360.355469 360.335938 342.285156 C 360.335938 332.121094 355.703125 323.042969 348.433594 317.042969 Z M 348.433594 317.042969 " fill-opacity="1" fill-rule="nonzero"/><path fill="#333e48" d="M 316.988281 311.34375 C 316.988281 311.921875 316.933594 312.496094 316.820312 313.0625 C 316.707031 313.628906 316.539062 314.179688 316.316406 314.714844 C 316.097656 315.25 315.824219 315.757812 315.503906 316.238281 C 315.183594 316.71875 314.816406 317.164062 314.410156 317.574219 C 314 317.980469 313.554688 318.347656 313.074219 318.667969 C 312.59375 318.988281 312.085938 319.261719 311.550781 319.480469 C 311.015625 319.703125 310.464844 319.871094 309.898438 319.984375 C 309.332031 320.097656 308.757812 320.152344 308.179688 320.152344 C 307.601562 320.152344 307.027344 320.097656 306.460938 319.984375 C 305.894531 319.871094 305.34375 319.703125 304.808594 319.480469 C 304.273438 319.261719 303.765625 318.988281 303.285156 318.667969 C 302.804688 318.347656 302.359375 317.980469 301.953125 317.574219 C 301.542969 317.164062 301.175781 316.71875 300.855469 316.238281 C 300.535156 315.757812 300.265625 315.25 300.042969 314.714844 C 299.820312 314.179688 299.652344 313.628906 299.542969 313.0625 C 299.429688 312.496094 299.371094 311.921875 299.371094 311.34375 C 299.371094 310.765625 299.429688 310.191406 299.542969 309.625 C 299.652344 309.058594 299.820312 308.507812 300.042969 307.972656 C 300.265625 307.4375 300.535156 306.929688 300.855469 306.449219 C 301.175781 305.96875 301.542969 305.523438 301.953125 305.117188 C 302.359375 304.707031 302.804688 304.339844 303.285156 304.019531 C 303.765625 303.699219 304.273438 303.425781 304.808594 303.207031 C 305.34375 302.984375 305.894531 302.816406 306.460938 302.707031 C 307.027344 302.59375 307.601562 302.535156 308.179688 302.535156 C 308.757812 302.535156 309.332031 302.59375 309.898438 302.707031 C 310.464844 302.816406 311.015625 302.984375 311.550781 303.207031 C 312.085938 303.425781 312.59375 303.699219 313.074219 304.019531 C 313.554688 304.339844 314 304.707031 314.410156 305.117188 C 314.816406 305.523438 315.183594 305.96875 315.503906 306.449219 C 315.824219 306.929688 316.097656 307.4375 316.316406 307.972656 C 316.539062 308.507812 316.707031 309.058594 316.820312 309.625 C 316.933594 310.191406 316.988281 310.765625 316.988281 311.34375 Z M 316.988281 311.34375 " fill-opacity="1" fill-rule="nonzero"/><path fill="#333e48" d="M 375 334.476562 C 375 335.234375 374.902344 335.984375 374.703125 336.726562 C 374.503906 337.472656 374.210938 338.191406 373.820312 338.894531 C 373.429688 339.59375 372.953125 340.257812 372.386719 340.890625 C 371.820312 341.519531 371.175781 342.105469 370.457031 342.640625 C 369.738281 343.175781 368.953125 343.65625 368.105469 344.074219 C 367.261719 344.496094 366.367188 344.851562 365.425781 345.144531 C 364.484375 345.433594 363.515625 345.652344 362.515625 345.800781 C 361.515625 345.949219 360.507812 346.023438 359.488281 346.023438 C 358.472656 346.023438 357.460938 345.949219 356.464844 345.800781 C 355.464844 345.652344 354.496094 345.433594 353.554688 345.144531 C 352.613281 344.851562 351.71875 344.496094 350.871094 344.074219 C 350.027344 343.65625 349.242188 343.175781 348.523438 342.640625 C 347.800781 342.105469 347.160156 341.519531 346.59375 340.890625 C 346.027344 340.257812 345.550781 339.59375 345.160156 338.894531 C 344.769531 338.191406 344.476562 337.472656 344.277344 336.726562 C 344.078125 335.984375 343.980469 335.234375 343.980469 334.476562 C 343.980469 333.714844 344.078125 332.964844 344.277344 332.222656 C 344.476562 331.476562 344.769531 330.757812 345.160156 330.054688 C 345.550781 329.355469 346.027344 328.691406 346.59375 328.058594 C 347.160156 327.429688 347.800781 326.84375 348.523438 326.308594 C 349.242188 325.773438 350.027344 325.292969 350.871094 324.875 C 351.71875 324.453125 352.613281 324.097656 353.554688 323.804688 C 354.496094 323.515625 355.464844 323.296875 356.464844 323.148438 C 357.460938 323 358.472656 322.925781 359.488281 322.925781 C 360.507812 322.925781 361.515625 323 362.515625 323.148438 C 363.515625 323.296875 364.484375 323.515625 365.425781 323.804688 C 366.367188 324.097656 367.261719 324.453125 368.105469 324.875 C 368.953125 325.292969 369.738281 325.773438 370.457031 326.308594 C 371.175781 326.84375 371.820312 327.429688 372.386719 328.058594 C 372.953125 328.691406 373.429688 329.355469 373.820312 330.054688 C 374.210938 330.757812 374.503906 331.476562 374.703125 332.222656 C 374.902344 332.964844 375 333.714844 375 334.476562 Z M 375 334.476562 " fill-opacity="1" fill-rule="nonzero"/><path fill="#222222" d="M 212.578125 339.171875 C 212.453125 339.171875 195.984375 339.171875 195.984375 339.171875 C 187.863281 339.171875 181.273438 345.757812 181.273438 353.882812 L 181.273438 364.441406 C 181.273438 370.25 186.027344 375 191.835938 375 L 248.410156 375 C 248.410156 355.210938 232.367188 339.171875 212.578125 339.171875 Z M 212.578125 339.171875 " fill-opacity="0.2" fill-rule="nonzero"/><path fill="#997668" d="M 219.542969 339.171875 C 219.417969 339.171875 202.949219 339.171875 202.949219 339.171875 C 194.828125 339.171875 188.238281 345.757812 188.238281 353.882812 L 188.238281 364.441406 C 188.238281 370.25 192.992188 375 198.800781 375 L 255.378906 375 C 255.378906 355.210938 239.332031 339.171875 219.542969 339.171875 Z M 219.542969 339.171875 " fill-opacity="1" fill-rule="nonzero"/><path fill="#222222" d="M 202.949219 339.171875 C 194.828125 339.171875 188.238281 345.757812 188.238281 353.882812 L 188.238281 364.441406 C 188.238281 370.25 192.992188 375 198.796875 375 L 219.542969 375 L 219.542969 339.171875 C 219.417969 339.171875 202.949219 339.171875 202.949219 339.171875 Z M 202.949219 339.171875 " fill-opacity="0.2" fill-rule="nonzero"/><path fill="#222222" d="M 104.234375 339.171875 C 104.105469 339.171875 87.640625 339.171875 87.640625 339.171875 C 79.515625 339.171875 72.929688 345.757812 72.929688 353.882812 L 72.929688 364.441406 C 72.929688 370.25 77.683594 375 83.488281 375 L 140.066406 375 C 140.066406 355.210938 124.023438 339.171875 104.234375 339.171875 Z M 104.234375 339.171875 " fill-opacity="0.2" fill-rule="nonzero"/><path fill="#997668" d="M 111.199219 339.171875 C 111.074219 339.171875 94.605469 339.171875 94.605469 339.171875 C 86.480469 339.171875 79.894531 345.757812 79.894531 353.882812 L 79.894531 364.441406 C 79.894531 370.25 84.648438 375 90.457031 375 L 147.03125 375 C 147.03125 355.210938 130.988281 339.171875 111.199219 339.171875 Z M 111.199219 339.171875 " fill-opacity="1" fill-rule="nonzero"/><path fill="#222222" d="M 94.605469 339.171875 C 86.480469 339.171875 79.894531 345.757812 79.894531 353.882812 L 79.894531 364.441406 C 79.894531 370.25 84.648438 375 90.457031 375 L 111.199219 375 L 111.199219 339.171875 C 111.074219 339.171875 94.605469 339.171875 94.605469 339.171875 Z M 94.605469 339.171875 " fill-opacity="0.2" fill-rule="nonzero"/></svg>